<svg width="62" height="95" viewBox="0 0 62 95" fill="none" xmlns="http://www.w3.org/2000/svg">
<path d="M37.24 56.272C43.8107 57.04 48.8453 59.0027 52.344 62.16C55.928 65.232 57.72 69.456 57.72 74.832C57.72 80.2933 54.8187 84.944 49.016 88.784C43.2987 92.7093 35.1067 94.672 24.44 94.672C16.76 94.672 10.7867 92.8373 6.52 89.168C2.25333 85.584 0.12 80.8053 0.12 74.832C0.12 68.944 3.23467 64.2507 9.464 60.752C3.576 58.96 0.632 55.632 0.632 50.768C0.632 45.904 3.27733 42.576 8.568 40.784C3.78933 36.5173 1.4 30.9707 1.4 24.144C1.4 17.232 3.61867 11.6 8.056 7.248C12.5787 2.89599 18.8933 0.719994 27 0.719994C32.0347 0.719994 36.5147 1.65866 40.44 3.536H61.944V12.752H49.912C51.704 16.08 52.6 19.7493 52.6 23.76C52.6 30.416 50.3387 35.92 45.816 40.272C41.3787 44.624 35.1067 46.8 27 46.8H15.992C13.0053 46.8 11.512 47.952 11.512 50.256C11.512 52.1333 13.0053 53.2853 15.992 53.712L37.24 56.272ZM27 10.32C22.392 10.32 18.7653 11.6 16.12 14.16C13.56 16.72 12.28 19.9627 12.28 23.888C12.28 27.728 13.56 30.928 16.12 33.488C18.7653 35.9627 22.392 37.2 27 37.2C31.608 37.2 35.192 35.9627 37.752 33.488C40.3973 30.928 41.72 27.728 41.72 23.888C41.72 19.9627 40.3973 16.72 37.752 14.16C35.192 11.6 31.608 10.32 27 10.32ZM21.496 64.08C18.5093 64.7627 15.992 66.2133 13.944 68.432C11.9813 70.6507 11 73.04 11 75.6C11 78.2453 12.1947 80.464 14.584 82.256C16.9733 84.1333 20.2587 85.072 24.44 85.072C31.2667 85.072 36.6853 84.0053 40.696 81.872C44.792 79.824 46.84 77.264 46.84 74.192C46.84 69.4133 43.64 66.64 37.24 65.872L21.496 64.08Z" fill="white"/>
</svg>
